HIERARCHY
ROOT Hips
{
	OFFSET 0.000000 0.000000 0.000000
	CHANNELS 6 Xposition Yposition Zposition Zrotation Yrotation Xrotation 
	JOINT LHipJoint
	{
		OFFSET 0.000000 0.000000 0.000000
		CHANNELS 3 Zrotation Yrotation Xrotation
		JOINT LeftUpLeg
		{
			OFFSET 1.363060 -1.794630 0.839290
			CHANNELS 3 Zrotation Yrotation Xrotation
			JOINT LeftLeg
			{
				OFFSET 2.448110 -6.726130 0.000000
				CHANNELS 3 Zrotation Yrotation Xrotation
				JOINT LeftFoot
				{
					OFFSET 2.562200 -7.039590 0.000000
					CHANNELS 3 Zrotation Yrotation Xrotation
					JOINT LeftToeBase
					{
						OFFSET 0.157640 -0.433110 2.322550
						CHANNELS 3 Zrotation Yrotation Xrotation
						End Site
						{
							OFFSET 0.000000 0.000000 0.000000
						}
					}
				}
			}
		}
	}
	JOINT RHipJoint
	{
		OFFSET 0.000000 0.000000 0.000000
		CHANNELS 3 Zrotation Yrotation Xrotation
		JOINT RightUpLeg
		{
			OFFSET -1.305520 -1.794630 0.839290
			CHANNELS 3 Zrotation Yrotation Xrotation
			JOINT RightLeg
			{
				OFFSET -2.542530 -6.985550 0.000000
				CHANNELS 3 Zrotation Yrotation Xrotation
				JOINT RightFoot
				{
					OFFSET -2.568260 -7.056230 0.000000
					CHANNELS 3 Zrotation Yrotation Xrotation
					JOINT RightToeBase
					{
						OFFSET -0.164730 -0.452590 2.363150
						CHANNELS 3 Zrotation Yrotation Xrotation
						End Site
						{
							OFFSET 0.000000 0.000000 0.000000
						}
					}
				}
			}
		}
	}
	JOINT LowerBack
	{
		OFFSET 0.000000 0.000000 0.000000
		CHANNELS 3 Zrotation Yrotation Xrotation
		JOINT Spine
		{
			OFFSET 0.028270 2.035590 -0.193380
			CHANNELS 3 Zrotation Yrotation Xrotation
			JOINT Spine1
			{
				OFFSET 0.056720 2.048850 -0.042750
				CHANNELS 3 Zrotation Yrotation Xrotation
				JOINT Neck
				{
					OFFSET 0.000000 0.000000 0.000000
					CHANNELS 3 Zrotation Yrotation Xrotation
					JOINT Neck1
					{
						OFFSET -0.054170 1.746240 0.172020
						CHANNELS 3 Zrotation Yrotation Xrotation
						JOINT Head
						{
							OFFSET 0.104070 1.761360 -0.123970
							CHANNELS 3 Zrotation Yrotation Xrotation
							End Site
							{
								OFFSET 0.000000 0.000000 0.000000
							}
						}
					}
				}
				JOINT LeftShoulder
				{
					OFFSET 0.000000 0.000000 0.000000
					CHANNELS 3 Zrotation Yrotation Xrotation
					JOINT LeftArm
					{
						OFFSET 3.362410 1.200890 -0.311210
						CHANNELS 3 Zrotation Yrotation Xrotation
						JOINT LeftForeArm
						{
							OFFSET 4.983000 -0.000000 -0.000000
							CHANNELS 3 Zrotation Yrotation Xrotation
							JOINT LeftHand
							{
								OFFSET 3.483560 -0.000000 -0.000000
								CHANNELS 3 Zrotation Yrotation Xrotation
								JOINT LeftFingerBase
								{
									OFFSET 0.000000 0.000000 0.000000
									CHANNELS 3 Zrotation Yrotation Xrotation
									JOINT LeftHandIndex1
									{
										OFFSET 0.715260 -0.000000 -0.000000
										CHANNELS 3 Zrotation Yrotation Xrotation
										End Site
										{
											OFFSET 0.000000 0.000000 0.000000
										}
									}
								}
								JOINT LThumb
								{
									OFFSET 0.000000 0.000000 0.000000
									CHANNELS 3 Zrotation Yrotation Xrotation
									End Site
									{
										OFFSET 0.000000 0.000000 0.000000
									}
								}
							}
						}
					}
				}
				JOINT RightShoulder
				{
					OFFSET 0.000000 0.000000 0.000000
					CHANNELS 3 Zrotation Yrotation Xrotation
					JOINT RightArm
					{
						OFFSET -3.136600 1.374050 -0.404650
						CHANNELS 3 Zrotation Yrotation Xrotation
						JOINT RightForeArm
						{
							OFFSET -5.241900 -0.000000 -0.000000
							CHANNELS 3 Zrotation Yrotation Xrotation
							JOINT RightHand
							{
								OFFSET -3.444170 -0.000000 -0.000000
								CHANNELS 3 Zrotation Yrotation Xrotation
								JOINT RightFingerBase
								{
									OFFSET 0.000000 0.000000 0.000000
									CHANNELS 3 Zrotation Yrotation Xrotation
									JOINT RightHandIndex1
									{
										OFFSET -0.622530 -0.000000 -0.000000
										CHANNELS 3 Zrotation Yrotation Xrotation
										End Site
										{
											OFFSET 0.000000 0.000000 0.000000
										}
									}
								}
								JOINT RThumb
								{
									OFFSET 0.000000 0.000000 0.000000
									CHANNELS 3 Zrotation Yrotation Xrotation
									End Site
									{
										OFFSET 0.000000 0.000000 0.000000
									}
								}
							}
						}
					}
				}
			}
		}
	}
}
MOTION
Frames: 11
Frame Time: 0.008333
1.150596 17.484539 -31.717449 1.323740 -1.957620 4.805107 -1.519307 0.230633 1.181188 -21.663335 -3.535474 -21.750005 3.591575 13.360925 40.749405 1.769484 -2.071647 -2.772173 0.000000 0.018200 0.050000 -1.149620 -1.195477 1.112185 16.712752 5.403581 -20.259744 -20.716732 -19.747903 89.377602 1.524261 -13.762624 20.803492 -0.003500 -0.379600 1.043100 -3.278653 1.674721 13.255623 0.178449 1.543462 -2.315828 2.072959 1.077329 -4.600083 -7.278907 -5.279223 -14.604588 7.272232 -5.642513 3.903801 4.259600 -2.428300 7.139000 -2.338748 2.733950 -2.319823 -83.079980 9.695311 42.174033 126.764729 -58.424287 -93.610926 -0.856908 -1.813458 -32.708844 27.188348 9.260273 5.632800 -7.125000 0.000000 0.000000 1.667800 41.693500 -0.136100 -0.244299 -1.250795 -1.397361 86.797553 -12.470046 42.784520 -110.895464 60.024615 -84.244036 0.865163 -1.072149 -4.806471 -2.933480 20.909224 -1.389200 7.125000 0.000000 0.000000 15.746000 -8.551900 13.774200
1.144337 17.469690 -31.575503 1.370177 -2.063843 4.924473 -1.514567 0.250692 1.224667 -21.765073 -3.339825 -21.455598 3.617213 13.358212 40.807789 1.773630 -2.034075 -3.155100 0.002763 -0.200759 -0.551621 -1.184641 -1.172155 1.075177 16.490705 5.537159 -21.331746 -20.901041 -19.804573 89.967983 1.517568 -13.538209 20.502455 -0.002138 -0.246326 0.676898 -3.397564 1.678022 13.228374 0.167402 1.533188 -2.306030 2.078516 1.065466 -4.550593 -7.159118 -5.294594 -14.661300 7.211378 -5.683396 3.751949 4.189403 -2.444877 7.063394 -2.336668 2.716258 -2.301113 -83.005043 8.964087 42.266549 126.791921 -58.394974 -93.638141 -0.850180 -1.831750 -32.653712 27.248632 9.601730 5.841408 -7.125000 0.000000 0.000000 1.702237 42.106513 -0.121002 -0.229982 -1.260939 -1.400117 86.892434 -12.718477 42.587189 -110.477389 60.103032 -83.966142 0.867749 -1.057588 -4.832806 -2.902195 20.730308 -1.367370 7.125000 0.000000 0.000000 15.768258 -8.739262 13.733926
1.138079 17.454841 -31.433558 1.416615 -2.170066 5.043838 -1.509826 0.270751 1.268146 -21.866812 -3.144176 -21.161190 3.642850 13.355499 40.866173 1.777775 -1.996503 -3.538027 0.005526 -0.419717 -1.153241 -1.219661 -1.148833 1.038169 16.268657 5.670738 -22.403748 -21.085351 -19.861242 90.558364 1.510875 -13.313794 20.201417 -0.000776 -0.113052 0.310696 -3.516475 1.681324 13.201125 0.156355 1.522914 -2.296233 2.084074 1.053603 -4.501104 -7.039330 -5.309964 -14.718012 7.150525 -5.724279 3.600096 4.119205 -2.461453 6.987787 -2.334588 2.698566 -2.282403 -82.930107 8.232863 42.359065 126.819113 -58.365661 -93.665356 -0.843452 -1.850042 -32.598579 27.308916 9.943186 6.050016 -7.125000 0.000000 0.000000 1.736674 42.519527 -0.105904 -0.215666 -1.271083 -1.402873 86.987314 -12.966908 42.389858 -110.059313 60.181450 -83.688249 0.870336 -1.043026 -4.859141 -2.870911 20.551391 -1.345541 7.125000 0.000000 0.000000 15.790515 -8.926624 13.693652
1.133720 17.438268 -31.294322 1.462524 -2.173421 5.162321 -1.508792 0.292858 1.310176 -21.965640 -3.031774 -20.834865 3.655790 13.341835 40.882426 1.794216 -1.999756 -3.877077 0.011368 -0.648316 -1.781673 -1.250108 -1.129974 1.003355 16.047835 5.674490 -23.411177 -21.244659 -19.912744 91.095597 1.503158 -13.019107 19.787327 -0.000084 -0.007711 0.021247 -3.584432 1.634770 13.195979 0.148644 1.454870 -2.286918 2.082034 1.012010 -4.438098 -6.978052 -5.313982 -14.873803 7.139266 -5.733371 3.537440 4.092907 -2.458883 6.986993 -2.339365 2.684040 -2.269496 -82.886454 7.475023 42.403637 126.817733 -58.347865 -93.675333 -0.834780 -1.864482 -32.488465 27.302663 10.244495 6.218758 -7.125000 0.000000 0.000000 1.707631 42.879017 -0.090120 -0.208741 -1.275002 -1.408946 87.043181 -13.191064 42.244132 -109.755876 60.239112 -83.485860 0.867618 -1.035562 -4.886189 -2.779143 20.428777 -1.303209 7.125000 0.000000 0.000000 15.852171 -9.057417 13.708708
1.131879 17.419410 -31.158675 1.507734 -2.040475 5.279634 -1.512669 0.317681 1.350286 -22.060611 -3.029674 -20.466249 3.651904 13.313662 40.842855 1.826946 -2.057104 -4.157991 0.021290 -0.889688 -2.445631 -1.274495 -1.117029 0.971446 15.828635 5.506224 -24.333047 -21.370842 -19.957397 91.562409 1.494085 -12.631308 19.223443 -0.000278 0.060619 -0.166504 -3.584874 1.522158 13.220118 0.145356 1.310279 -2.278245 2.069929 0.931025 -4.357184 -6.994301 -5.302957 -15.160874 7.193718 -5.700340 3.592967 4.124776 -2.430944 7.085324 -2.353228 2.673711 -2.264279 -82.884252 6.681918 42.384684 126.778492 -58.345329 -93.662472 -0.823532 -1.873817 -32.305499 27.208249 10.492607 6.334677 -7.125000 0.000000 0.000000 1.594474 43.167590 -0.073427 -0.211611 -1.270674 -1.419415 87.047355 -13.383055 42.166783 -109.604336 60.269273 -83.383517 0.857872 -1.037501 -4.914183 -2.607236 20.380764 -1.233712 7.125000 0.000000 0.000000 15.966028 -9.113256 13.797078
1.130038 17.400552 -31.023029 1.552943 -1.907530 5.396947 -1.516545 0.342504 1.390396 -22.155582 -3.027575 -20.097632 3.648019 13.285488 40.803283 1.859677 -2.114451 -4.438904 0.031213 -1.131060 -3.109589 -1.298882 -1.104084 0.939536 15.609436 5.337957 -25.254917 -21.497025 -20.002051 92.029221 1.485011 -12.243509 18.659559 -0.000473 0.128949 -0.354255 -3.585316 1.409546 13.244258 0.142067 1.165689 -2.269571 2.057823 0.850039 -4.276271 -7.010550 -5.291931 -15.447944 7.248171 -5.667309 3.648494 4.156645 -2.403005 7.183655 -2.367091 2.663381 -2.259061 -82.882051 5.888813 42.365731 126.739252 -58.342793 -93.649611 -0.812284 -1.883151 -32.122534 27.113834 10.740720 6.450596 -7.125000 0.000000 0.000000 1.481318 43.456162 -0.056733 -0.214481 -1.266345 -1.429884 87.051529 -13.575046 42.089433 -109.452795 60.299434 -83.281173 0.848126 -1.039440 -4.942176 -2.435328 20.332751 -1.164215 7.125000 0.000000 0.000000 16.079885 -9.169095 13.885447
1.132068 17.394432 -30.882246 1.554748 -1.644280 5.525073 -1.529883 0.372263 1.437292 -22.186068 -3.151003 -19.616947 3.622922 13.233691 40.687327 1.869782 -2.110710 -4.663457 0.037654 -1.246541 -3.427538 -1.324616 -1.083780 0.902712 15.455441 5.091836 -26.471049 -21.571847 -20.065641 92.289311 1.423289 -11.899241 18.569311 -0.012115 -0.313383 0.861877 -3.476420 1.245361 13.251602 0.153842 0.973298 -2.268955 2.047537 0.744400 -4.208226 -7.054066 -5.311848 -15.724090 7.274912 -5.671906 3.782389 4.176330 -2.399502 7.323994 -2.374459 2.654296 -2.256870 -82.978856 5.190696 42.328075 126.681728 -58.349503 -93.623987 -0.803573 -1.877966 -31.924904 26.931056 10.756414 6.411135 -7.125000 0.000000 0.000000 1.299274 43.458743 -0.049111 -0.224767 -1.266446 -1.441242 87.025572 -13.913831 42.000698 -109.716491 60.265517 -83.445725 0.835272 -1.074503 -4.930125 -2.187406 20.682045 -1.082801 7.125000 0.000000 0.000000 16.229758 -8.817603 14.147172
1.134727 17.390382 -30.740628 1.549499 -1.359856 5.654955 -1.544758 0.402824 1.485291 -22.206075 -3.294829 -19.118050 3.594379 13.178054 40.558957 1.876211 -2.097043 -4.878850 0.043530 -1.341564 -3.689261 -1.350568 -1.062281 0.865090 15.312043 4.833064 -27.734999 -21.638323 -20.132307 92.515810 1.353011 -11.562046 18.556030 -0.025618 -0.838697 2.306139 -3.349756 1.072796 13.256216 0.168066 0.773140 -2.269648 2.037545 0.634753 -4.142273 -7.102012 -5.336793 -15.998462 7.297150 -5.682618 3.929019 4.194035 -2.399969 7.471160 -2.380771 2.645413 -2.255170 -83.091750 4.508014 42.287380 126.621232 -58.357717 -93.596290 -0.795273 -1.870421 -31.724891 26.733919 10.734340 6.346424 -7.125000 0.000000 0.000000 1.106036 43.414850 -0.042963 -0.236258 -1.267267 -1.452745 86.994719 -14.276471 41.910112 -110.047663 60.221188 -83.653647 0.821913 -1.114948 -4.911568 -1.927131 21.095900 -0.999451 7.125000 0.000000 0.000000 16.385485 -8.399920 14.437068
1.136210 17.387556 -30.598654 1.546448 -1.123993 5.780405 -1.562394 0.435172 1.538142 -22.225058 -3.403459 -18.615657 3.560077 13.116476 40.410075 1.873253 -2.059014 -5.068828 0.047079 -1.399635 -3.849197 -1.375004 -1.044083 0.830703 15.179114 4.590096 -28.907301 -21.687147 -20.195077 92.699695 1.291048 -11.213136 18.454650 -0.066764 -1.481986 4.081113 -3.255130 0.909725 13.268246 0.185527 0.579200 -2.280016 2.054965 0.530837 -4.131213 -7.140748 -5.339393 -16.179677 7.301536 -5.668830 4.037260 4.202307 -2.392562 7.573555 -2.382240 2.633949 -2.253662 -83.211566 3.945715 42.222647 126.626447 -58.339717 -93.612676 -0.791029 -1.859655 -31.526672 26.563962 10.671842 6.266157 -7.125000 0.000000 0.000000 0.943357 43.323622 -0.038690 -0.246740 -1.266839 -1.462574 86.936064 -14.691645 41.876029 -110.444019 60.161722 -83.914759 0.802034 -1.144320 -4.943408 -1.647537 21.350798 -0.898557 7.125000 0.000000 0.000000 16.561794 -8.146463 14.691739
1.134820 17.387719 -30.455808 1.548768 -1.006835 5.895019 -1.586780 0.471886 1.602854 -22.241538 -3.426052 -18.104719 3.511698 13.040374 40.211051 1.847350 -1.961431 -5.196677 0.044938 -1.367377 -3.760322 -1.395732 -1.033956 0.804225 15.071780 4.385760 -29.855579 -21.692819 -20.248319 92.779413 1.249408 -10.835589 18.137914 -0.175485 -2.413659 6.664489 -3.238819 0.769863 13.298400 0.210903 0.400456 -2.314034 2.139387 0.440927 -4.254336 -7.156970 -5.287370 -16.133175 7.262285 -5.595155 4.051660 4.187521 -2.365907 7.566512 -2.371869 2.616174 -2.252620 -83.348302 3.677686 42.099152 126.792289 -58.257640 -93.736820 -0.796699 -1.841013 -31.332835 26.460444 10.510526 6.147864 -7.125000 0.000000 0.000000 0.855377 43.116687 -0.039002 -0.254757 -1.263361 -1.468311 86.809446 -15.235239 41.980066 -110.999714 60.065259 -84.305893 0.766219 -1.146623 -5.098445 -1.320718 21.217131 -0.754777 7.125000 0.000000 0.000000 16.788418 -8.294446 14.860306
1.133429 17.387883 -30.312962 1.551089 -0.889676 6.009632 -1.611165 0.508600 1.667566 -22.258018 -3.448646 -17.593780 3.463319 12.964272 40.012027 1.821447 -1.863848 -5.324527 0.042798 -1.335118 -3.671447 -1.416460 -1.023828 0.777746 14.964446 4.181425 -30.803856 -21.698492 -20.301562 92.859130 1.207768 -10.458041 17.821179 -0.284205 -3.345332 9.247866 -3.222509 0.630001 13.328555 0.236279 0.221712 -2.348053 2.223809 0.351017 -4.377459 -7.173191 -5.235347 -16.086674 7.223034 -5.521479 4.066061 4.172734 -2.339252 7.559469 -2.361497 2.598399 -2.251579 -83.485039 3.409657 41.975656 126.958131 -58.175563 -93.860964 -0.802370 -1.822372 -31.138999 26.356927 10.349211 6.029571 -7.125000 0.000000 0.000000 0.767397 42.909753 -0.039313 -0.262774 -1.259883 -1.474047 86.682828 -15.778833 42.084102 -111.555408 59.968795 -84.697028 0.730404 -1.148927 -5.253481 -0.993900 21.083464 -0.610997 7.125000 0.000000 0.000000 17.015043 -8.442428 15.028874
